<svg width="87" height="26" viewBox="0 0 87 26" fill="none" xmlns="http://www.w3.org/2000/svg">
<path d="M0 0.412109H8.80336L15.0301 13.5098L21.2211 0.412109H30.0245V25.4981H22.7599V11.7563L17.7141 23.0646H12.3104L7.26456 11.7563V25.4981H0V0.412109Z" fill="#005ECD"/>
<path d="M31.6509 0.411377H40.5258L45.7148 16.8729L50.868 0.411377H59.3492L49.7586 25.4974H41.17L31.6509 0.411377Z" fill="#F90000"/>
<path d="M69.1719 0.411377L76.5165 12.3525L68.6296 25.4974H58.9796L67.7829 12.7575L59.5164 0.411377H69.1719Z" fill="#FF8A00"/>
<path d="M74.2717 3.98188L78.3884 11.9764L86.2485 0.411377H76.4789L74.2717 3.98188Z" fill="#FF8A00"/>
<path d="M78.3813 12.743L74.1281 21.0131L77.0515 25.4974H87L78.3813 12.743Z" fill="#FF8A00"/>
</svg>
